<svg xmlns="http://www.w3.org/2000/svg" xml:space="preserve" fill-rule="evenodd" stroke-linejoin="round" stroke-miterlimit="2" clip-rule="evenodd" viewBox="0 0 773 532">
  <path fill="#f2f2f2" fill-rule="nonzero" d="M106.069 528.4C43.025 511.991-.987 454.142.017 389.006c.121-7.912.953-15.99 4.279-23.17 3.326-7.18 9.504-13.391 17.232-15.092 8.434-1.857 17.334 1.939 23.619 7.861s10.406 13.736 14.198 21.495c22.838 46.734 40.189 96.88 46.686 148.488l.038-.188Z"/>
  <path fill="#fff" fill-rule="nonzero" d="m17.702 352.303 32.012 72.735c5.069 11.517 10.129 23.04 15.368 34.481 5.194 11.341 10.565 22.603 16.295 33.684 5.723 11.065 11.804 21.949 18.405 32.515.823 1.316 1.653 2.627 2.491 3.932.58.905 2.03.066 1.446-.845-6.728-10.487-12.927-21.305-18.742-32.324-5.82-11.03-11.261-22.257-16.5-33.574-5.267-11.377-10.332-22.847-15.383-34.321-5.317-12.078-10.633-24.156-15.948-36.235L21.14 355.984l-1.992-4.526c-.433-.984-1.877-.133-1.446.845Z"/>
  <path fill="#f2f2f2" fill-rule="nonzero" d="M99.392 528.652c-37.161 8.501-75.628-9.651-92.692-43.74-2.072-4.141-3.821-8.56-4.033-13.185-.211-4.626 1.32-9.518 4.873-12.487 3.877-3.241 9.522-3.673 14.384-2.295 4.862 1.378 9.111 4.322 13.174 7.327 24.474 18.098 47.02 39.448 64.325 64.489l-.031-.109Z"/>
  <path fill="#fff" fill-rule="nonzero" d="m5.974 461.082 18.128 14.56 18.128 14.56c5.741 4.612 11.478 9.228 17.287 13.754 5.758 4.486 11.588 8.883 17.554 13.089 5.958 4.2 12.054 8.209 18.334 11.912.782.462 1.566.918 2.354 1.37.545.312 1.072-.514.523-.83-6.325-3.628-12.464-7.571-18.457-11.722-6-4.155-11.855-8.516-17.63-12.977-5.807-4.485-11.532-9.072-17.253-13.666-6.021-4.835-12.041-9.671-18.062-14.507l-18.127-14.56-2.256-1.812c-.491-.394-1.01.438-.523.829ZM765.91 0h-487c-3.839.004-6.996 3.161-7 7v330c.004 3.838 3.161 6.995 7 7h487c3.838-.005 6.995-3.162 7-7V7c-.005-3.839-3.162-6.996-7-7Z"/>
  <path fill-rule="nonzero" d="M765.91 0h-487c-3.839.004-6.996 3.161-7 7v330c.004 3.838 3.161 6.995 7 7h487c3.838-.005 6.995-3.162 7-7V7c-.005-3.839-3.162-6.996-7-7Zm5 337c-.001 2.742-2.258 4.998-5 5h-487c-2.743-.002-4.999-2.258-5-5V7c.001-2.743 2.257-4.999 5-5h487c2.742.001 4.999 2.257 5 5v330Z"/>
  <path fill="#3f3d56" d="M272.909 28.04h499v2h-499z"/>
  <circle cx="289.909" cy="15" r="6" fill="#3f3d56"/>
  <circle cx="307.159" cy="15" r="6" fill="#3f3d56"/>
  <circle cx="324.409" cy="15" r="6" fill="#3f3d56"/>
  <path fill="#ccc" fill-rule="nonzero" d="M394.778 74.5h-84c-3.84 0-7-3.16-7-7 0-3.841 3.16-7 7-7h84c3.84 0 7 3.159 7 7 0 3.84-3.16 7-7 7Zm115 34h-199c-3.84 0-7-3.16-7-7 0-3.841 3.16-7 7-7h199c3.84 0 7 3.159 7 7 0 3.84-3.16 7-7 7Z"/>
  <path fill="#0e7b54" fill-rule="nonzero" d="M573.998 122.023a91.0123 91.0123 0 0 0-15.956 51.473c0 49.922 41.078 91.002 91 91.004v-79.44l-75.044-63.037Z"/>
  <path fill="#ccc" fill-rule="nonzero" d="M649.042 82.5c-29.978-.02-58.102 14.792-75.044 39.523l75.044 63.037V82.5Z"/>
  <path fill="#3f3d56" fill-rule="nonzero" d="M649.042 265.5h-1v-184h1c50.469 0 92 41.53 92 92 0 50.469-41.531 92-92 92Zm1-181.995v179.989c48.991-.544 88.999-41 88.999-89.994 0-48.995-40.008-89.451-88.999-89.995Z"/>
  <path fill="#ccc" fill-rule="nonzero" d="M368.778 303h-17c-2.468-.003-4.497-2.033-4.5-4.5v-49c.003-2.468 2.032-4.498 4.5-4.5h17c2.467.002 4.497 2.032 4.5 4.5v49c-.003 2.467-2.033 4.497-4.5 4.5Z"/>
  <path fill="#ff6584" fill-rule="nonzero" d="M418.778 303h-17c-2.468-.003-4.497-2.033-4.5-4.5v-72c.003-2.468 2.032-4.498 4.5-4.5h17c2.467.002 4.497 2.032 4.5 4.5v72c-.003 2.467-2.033 4.497-4.5 4.5Z"/>
  <path fill="#0e7b54" fill-rule="nonzero" d="M468.778 303h-17c-2.468-.003-4.497-2.033-4.5-4.5v-92c.003-2.468 2.032-4.498 4.5-4.5h17c2.467.002 4.497 2.032 4.5 4.5v92c-.003 2.467-2.033 4.497-4.5 4.5Z"/>
  <path fill="#3f3d56" fill-rule="nonzero" d="M368.778 303.5h-17c-2.742-.004-4.997-2.259-5-5v-110c.003-2.742 2.258-4.997 5-5h17c2.742.003 4.997 2.258 5 5v110c-.003 2.741-2.258 4.996-5 5Zm-17-118c-1.645.001-2.998 1.354-3 3v110c.002 1.645 1.355 2.998 3 3h17c1.645-.002 2.998-1.355 3-3v-110c-.002-1.646-1.355-2.999-3-3h-17Zm67 118h-17c-2.742-.004-4.997-2.259-5-5v-110c.003-2.742 2.258-4.997 5-5h17c2.742.003 4.997 2.258 5 5v110c-.003 2.741-2.258 4.996-5 5Zm-17-118c-1.645.001-2.998 1.354-3 3v110c.002 1.645 1.355 2.998 3 3h17c1.645-.002 2.998-1.355 3-3v-110c-.002-1.646-1.355-2.999-3-3h-17Zm67 118h-17c-2.742-.004-4.997-2.259-5-5v-110c.003-2.742 2.258-4.997 5-5h17c2.742.003 4.997 2.258 5 5v110c-.003 2.741-2.258 4.996-5 5Zm-17-118c-1.645.001-2.998 1.354-3 3v110c.002 1.645 1.355 2.998 3 3h17c1.645-.002 2.998-1.355 3-3v-110c-.002-1.646-1.355-2.999-3-3h-17Z"/>
  <path fill="#ffb8b8" fill-rule="nonzero" d="M112.432 359.002c.237-.866.357-1.76.357-2.658 0-5.172-3.991-9.544-9.142-10.014l-8.6-34.685-12.587 13.654 10.097 30.844c-.002.083-.003.166-.003.25 0 5.546 4.564 10.11 10.11 10.11 4.564 0 8.59-3.091 9.768-7.501Z"/>
  <path fill="#2f2e41" fill-rule="nonzero" d="M89.375 348.335a4.508 4.508 0 0 1-2.517-2.67l-14.357-44.178c-3.708-10.609-3.436-22.212.764-32.635l13.839-34.355c1.153-6.968 7.239-12.129 14.301-12.129 7.953 0 14.497 6.544 14.497 14.496 0 .804-.067 1.607-.2 2.4L96.61 294.821l6.683 45.239c.181 1.881-.837 3.686-2.54 4.504l-7.709 3.678c-.827.394-1.754.527-2.659.38a4.4304 4.4304 0 0 1-1.01-.287Z"/>
  <path fill="#ffb8b8" fill-rule="nonzero" d="m160.343 518.443 12.26-.001 5.832-47.288-18.094.001.002 47.288Z"/>
  <path fill="#2f2e41" fill-rule="nonzero" d="m196.247 529.828-38.53.0017-.0007-14.887 23.644-.001c8.166-.0004 14.8864 6.7193 14.8867 14.8863Z"/>
  <path fill="#ffb8b8" fill-rule="nonzero" d="m99.343 518.443 12.26-.001 5.832-47.288-18.094.001.002 47.288Z"/>
  <path fill="#2f2e41" fill-rule="nonzero" d="m135.247 529.8252-38.53.0017-.0007-14.887 23.644-.001c8.166-.0004 14.8864 6.7193 14.8867 14.8863Zm28.447-204.1142 10.777 85.386a468.9248 468.9248 0 0 1 3.11 35.346l2.904 58.068c.003.067.005.133.005.2 0 2.194-1.806 4-4 4h-16.357c-1.968 0-3.659-1.454-3.955-3.4l-14.71-96.913c-.147-.974-.993-1.7-1.977-1.7-.959 0-1.79.69-1.966 1.633l-17.722 94.916c-.359 1.748-1.846 3.054-3.626 3.185l-15.054.955c-.097.007-.194.01-.292.01-2.194 0-4-1.805-4-4 0-.041.001-.083.002-.125l4.861-155.561 62-22Z"/>
  <circle cx="115.946" cy="179.53" r="24.561" fill="#ffb8b8"/>
  <path fill="#0e7b54" fill-rule="nonzero" d="M96.694 349.711c6 14 32 24 38 4 4.641-15.46 23.02-21.96 31.13-24.11 2.108-.562 3.393-2.744 2.861-4.86l-22.671-89.05c-2.682-10.537-10.673-18.946-21.06-22.16-18.019-5.58-37.019 5.91-40.07 24.52-.833 5.218-1.364 10.48-1.589 15.76-1.881 39.29 9.449 86.68 13.399 95.9Z"/>
  <path fill="#ffb8b8" fill-rule="nonzero" d="M178.084 349.685c-.514-5.112-4.867-9.05-10.005-9.05-.929 0-1.854.129-2.747.383l-20.493-29.275-6.838 17.265 20.509 25.153c1.433 4.015 5.259 6.711 9.522 6.711 5.546 0 10.11-4.564 10.11-10.11 0-.36-.019-.719-.058-1.077Z"/>
  <path fill="#2f2e41" fill-rule="nonzero" d="M152.734 348.019a4.5107 4.5107 0 0 1-3.308-1.586l-29.277-36.065c-7.274-8.567-11.192-19.492-11.019-30.729l.564-37.033c-.198-.962-.298-1.942-.298-2.924 0-7.953 6.544-14.497 14.497-14.497 6.86 0 12.826 4.869 14.202 11.589l2.154 58.707 22.498 39.813c.846 1.69.545 3.74-.751 5.116l-5.871 6.203a4.5047 4.5047 0 0 1-2.344 1.311c-.344.073-.695.104-1.047.095Zm-55.43-148.4c.619.367 1.325.56 2.044.56 1.792 0 3.376-1.202 3.859-2.928l.013-.056c.446-1.864.076-3.811-.052-5.723-.128-1.913.059-4.014 1.362-5.42 2.428-2.621 6.747-1.231 10.258-1.894 4.235-.945 7.139-4.933 6.74-9.253-.05-.398-.128-.795-.216-1.193a6.656 6.656 0 0 1-.153-1.421c0-3.661 3.012-6.673 6.673-6.673.136 0 .271.004.407.013 3.548.202 7.378 1.277 10.313-1.351 2.196-2.115 2.918-5.354 1.827-8.201-1.676-4.838-6.414-7.371-11.102-8.764-11.735-3.39-24.394-1.313-34.43 5.65-2.961 2.087-5.727 4.71-6.989 8.106-1.262 3.396-.653 7.68 2.193 9.922-4.484 4.747-6.106 11.546-4.246 17.806 1.405 4.53 8.114 8.872 11.499 10.82Z"/>
  <path fill-rule="nonzero" d="M276.107 531.44h-265c-.549 0-1-.451-1-1 0-.548.451-1 1-1h265c.548 0 1 .452 1 1 0 .549-.452 1-1 1Z"/>
</svg>
