<svg xmlns="http://www.w3.org/2000/svg" xml:space="preserve" fill-rule="evenodd" stroke-linejoin="round" stroke-miterlimit="2" clip-rule="evenodd" viewBox="0 0 725 589">
  <path fill="#fff" fill-rule="nonzero" d="M692.771 359.271c-.795 1.529-1.625 3.031-2.481 4.525-32.833 57.199-109.209 92.723-238.014 73.921-73.134-11.183-104.28 29.836-134.439 71.851-.516.725-1.031 1.45-1.556 2.175-31.583 44.059-62.851 88.24-141.036 73.554-82.884-13.105-134.037-80.404-141.953-152.254-.096-.874-.183-1.756-.262-2.63-4.447-46.584 9.296-94.819 44.356-131.233 21.178-21.99 51.267-33.671 82.325-33.304 9.352.174 18.699-.519 27.923-2.071 2.036-.358 4.01-.751 5.932-1.197 39.568-9.042 57.802-35.925 68.985-68.731.262-.778.524-1.555.777-2.342 25.678-78.237 13.804-188.048 153.399-171.894 124.917 9.209 216.591 78.473 261.558 158.387.446.804.892 1.608 1.328 2.412a243.7235 243.7235 0 0 1 26.14 71.038c.28 1.397.534 2.795.769 4.193 6.361 37.114 2.193 73.187-13.751 103.6Z"/>
  <path fill="#f2f2f2" fill-rule="nonzero" d="M679.613 180.44a191.2798 191.2798 0 0 1-30.115 28.752c-43.063 33.025-97.606 50.935-151.415 54.692a300.8558 300.8558 0 0 1-82.579-5.609c-27.608-5.784-53.94-15.971-79.443-27.87-24.803-11.576-48.873-24.629-73.51-36.528.262-.778.524-1.555.777-2.342 26.866 12.931 53.181 27.18 80.36 39.499 25.608 11.611 52.115 21.081 79.836 26.149a299.7933 299.7933 0 0 0 83.855 3.285c53.661-5.4 108.247-25.197 149.502-60.615a178.519 178.519 0 0 0 21.404-21.825c.446.804.892 1.608 1.328 2.412Z"/>
  <path fill="#ccc" fill-rule="nonzero" d="M493.172.822c-.063 0-.125.002-.188.006-66.216 4.148-118.086 59.419-118.086 125.83s51.87 121.682 118.086 125.829c.799.054 1.586-.229 2.168-.779.581-.541.91-1.301.907-2.094V3.702c-.004-1.581-1.306-2.88-2.887-2.88Zm101.241 209.864a3.71 3.71 0 0 1-2.619-1.083l-85.617-85.617a3.68 3.68 0 0 1-1.083-2.614V3.702a3.6614 3.6614 0 0 1 1.166-2.693 3.7196 3.7196 0 0 1 2.782-1.001c66.648 4.175 118.856 59.807 118.856 126.65.002 30.355-10.888 59.725-30.679 82.741a3.7196 3.7196 0 0 1-2.669 1.285c-.046.002-.092.002-.137.002Z"/>
  <path fill="#0e7b54" fill-rule="nonzero" d="M508.806 253.315a3.726 3.726 0 0 1-2.544-1.007 3.664 3.664 0 0 1-1.168-2.695V143.444c.001-2.028 1.669-3.696 3.697-3.696.98 0 1.92.389 2.613 1.082l74.712 74.711a3.7095 3.7095 0 0 1 1.083 2.618c0 1.048-.444 2.048-1.222 2.75-21.266 19.146-48.385 30.565-76.941 32.399a3.554 3.554 0 0 1-.23.007Z"/>
  <path fill="#f2f2f2" fill-rule="nonzero" d="M706.523 255.671c-11.987 21.257-28.91 40.005-48.288 54.867-43.063 33.024-97.606 50.934-151.415 54.691a300.8142 300.8142 0 0 1-82.579-5.609c-27.608-5.784-53.941-15.971-79.443-27.87-25.965-12.118-51.136-25.86-76.988-38.205-25.825-12.337-52.367-22.856-80.176-29.74 2.036-.358 4.01-.751 5.932-1.197 1.817.472 3.629.961 5.434 1.468 54.377 15.202 102.368 45.16 153.425 68.303 25.607 11.611 52.114 21.082 79.836 26.149a299.7877 299.7877 0 0 0 83.854 3.285c53.661-5.399 108.248-25.197 149.502-60.615a174.254 174.254 0 0 0 40.136-49.72c.28 1.397.534 2.795.77 4.193ZM166.675 442.304c53.573 14.975 100.943 44.277 151.162 67.264-.516.725-1.031 1.45-1.556 2.175-1.275-.585-2.542-1.171-3.809-1.765-25.965-12.117-51.135-25.86-76.987-38.205-26.376-12.598-53.495-23.301-81.95-30.177a366.1883 366.1883 0 0 0-120.243-8.553c-.096-.874-.183-1.756-.262-2.63 44.9-4.238 90.198-.208 133.645 11.891Z"/>
  <path fill="#ccc" fill-rule="nonzero" d="M382 526.601H1c-.549 0-1-.451-1-1 0-.548.451-1 1-1h381c.548 0 1 .452 1 1 0 .549-.452 1-1 1Z"/>
  <circle cx="155.119" cy="367.136" r="24.561" fill="#a0616a"/>
  <path fill="#a0616a" fill-rule="nonzero" d="m247.019 540.442.573 12.247-46.963 8.04-.846-18.074 47.236-2.213Z"/>
  <path fill="#2f2e41" fill-rule="nonzero" d="m258.743 536.763 1.304 27.84-.5.024c-3.857.254-7.702-.676-11.017-2.665-2.998-1.91-4.724-4.557-4.86-7.451v-.001l-.796-17.004 15.869-.743Z"/>
  <path fill="#a0616a" fill-rule="nonzero" d="m245.705 560.594 12.26-.001 5.832-47.288-18.094.001.002 47.288Z"/>
  <path fill="#2f2e41" fill-rule="nonzero" d="m242.577 556.591 24.146-.001c8.44 0 15.386 6.946 15.386 15.386v.5l-39.531.002-.001-15.887Z"/>
  <path fill="#a0616a" fill-rule="nonzero" d="M129.962 549.139c3.21-1.945 5.176-5.435 5.176-9.188 0-2.61-.951-5.133-2.675-7.094l9.785-97.354-23.305 1.629-2.29 95.184a10.8004 10.8004 0 0 0-3.148 7.621c0 5.926 4.875 10.801 10.801 10.801 1.997 0 3.955-.553 5.656-1.599Z"/>
  <path fill="#0e7b54" fill-rule="nonzero" d="m142.134 452.378-24.149-2.943c-2.405-.293-4.234-2.358-4.234-4.781 0-.432.058-.861.172-1.277l6.431-23.386c.848-6.648 6.568-11.684 13.27-11.684 7.338 0 13.377 6.039 13.377 13.377 0 .542-.033 1.083-.099 1.621l.63 24.168c.001.041.002.082.002.124 0 2.642-2.175 4.817-4.817 4.817-.195 0-.39-.012-.583-.036Z"/>
  <path fill="#2f2e41" fill-rule="nonzero" d="M138.756 562.929c-8.692-.595-15.525-7.911-15.525-16.623 0-3.345 1.007-6.614 2.89-9.379l15.774-16.376 57.5-51.5 30.741-25.509a13.77 13.77 0 0 1 8.79-3.172c6.309 0 11.849 4.338 13.363 10.462l16.06 64.969c.555 2.228-.683 4.541-2.844 5.314l-17.509 6.303c-.489.176-1.005.266-1.525.266-2.032 0-3.824-1.376-4.347-3.34l-6.66-24.976-37.058 35.427 11.562 4.256c2.186.815 3.401 3.196 2.776 5.444l-3.736 13.238c-.528 1.89-2.238 3.224-4.2 3.275l-66.052 1.921Z"/>
  <path fill="#0e7b54" fill-rule="nonzero" d="m137.185 526.003-1.521-55.554-9.594-24.366a36.6637 36.6637 0 0 1-2.553-13.442c0-17.317 12.268-32.389 29.224-35.903.79-.165 1.577-.324 2.362-.48 2.351-.467 4.742-.702 7.139-.702 18.761 0 34.649 14.403 36.484 33.074l4.509 41.822-.018.08c-7.189 31.978-27.993 49.577-65.47 55.384l-.562.087Z"/>
  <path fill="#a0616a" fill-rule="nonzero" d="M159.876 487.414c.547-.084 1.1-.125 1.653-.122l27.759-41.097-5.257-10.84 15.323-10.073 11.172 18.287c1.849 3.026 1.475 6.936-.912 9.557l-37.992 41.714c.278.954.419 1.944.419 2.938 0 5.758-4.738 10.497-10.497 10.497-5.758 0-10.497-4.739-10.497-10.497 0-5.132 3.763-9.548 8.829-10.364Z"/>
  <path fill="#0e7b54" fill-rule="nonzero" d="M186.859 445.431a4.499 4.499 0 0 1-2.861-2.42l-9.6-20.443a12.492 12.492 0 0 1-2.088-6.915c0-6.856 5.642-12.498 12.497-12.498 4.156 0 8.05 2.073 10.37 5.522l15.168 16.832c.744.826 1.157 1.9 1.157 3.012a4.505 4.505 0 0 1-2.01 3.749l-18.931 12.576c-1.09.724-2.442.938-3.702.585Z"/>
  <path fill="#ccc" fill-rule="nonzero" d="M480.883 369.187h-81.07c-2.417 0-4.406-1.989-4.406-4.406s1.989-4.406 4.406-4.406h81.07c2.417 0 4.406 1.989 4.406 4.406s-1.989 4.406-4.406 4.406Z"/>
  <path fill="#3f3d56" fill-rule="nonzero" d="M375.58 373.593c-5.076 0-9.253-4.176-9.253-9.252 0-5.076 4.177-9.253 9.253-9.253 5.076 0 9.252 4.177 9.252 9.253-.005 5.073-4.179 9.247-9.252 9.252Z"/>
  <path fill="#ccc" fill-rule="nonzero" d="M480.883 395.623h-81.07c-2.417 0-4.406-1.989-4.406-4.406s1.989-4.406 4.406-4.406h81.07c2.417 0 4.406 1.989 4.406 4.406s-1.989 4.406-4.406 4.406Z"/>
  <path fill="#3f3d56" fill-rule="nonzero" d="M375.58 400.029c-5.076 0-9.253-4.177-9.253-9.252 0-5.076 4.177-9.253 9.253-9.253 5.076 0 9.252 4.177 9.252 9.253-.005 5.073-4.179 9.246-9.252 9.252Z"/>
  <path fill="#ccc" fill-rule="nonzero" d="M480.883 422.059h-81.07c-2.417 0-4.406-1.989-4.406-4.406s1.989-4.406 4.406-4.406h81.07c2.417 0 4.406 1.989 4.406 4.406s-1.989 4.406-4.406 4.406Z"/>
  <path fill="#3f3d56" fill-rule="nonzero" d="M375.58 426.465c-5.076 0-9.253-4.177-9.253-9.252 0-5.076 4.177-9.253 9.253-9.253 5.076 0 9.252 4.177 9.252 9.253-.005 5.073-4.179 9.246-9.252 9.252Zm128.592-35.367h33.488c.484 0 .882-.397.882-.881V203.206c0-.483-.398-.881-.882-.881-.483 0-.881.398-.881.881v186.13h-32.607c-.483 0-.881.398-.881.881 0 .484.398.881.881.881Z"/>
  <path fill="#ccc" fill-rule="nonzero" d="M647.661 64.906c-.304.024-.608.037-.912.037-6.231 0-11.358-5.127-11.358-11.358 0-6.231 5.127-11.358 11.358-11.358 5.887 0 10.848 4.578 11.321 10.446.5 6.211-4.199 11.733-10.409 12.233Zm-.14-1.742c4.965-.4 8.838-4.597 8.838-9.579 0-5.272-4.338-9.61-9.61-9.61-5.272 0-9.61 4.338-9.61 9.61 0 .258.01.515.031.772.4 4.965 4.597 8.838 9.579 8.838.257 0 .515-.01.772-.031Z"/>
  <circle cx="686.77" cy="28.774" r="6.989" fill="#ccc"/>
  <circle cx="721.125" cy="6.815" r="3.671" fill="#ccc"/>
  <path fill="#ccc" fill-rule="nonzero" d="M594.294 288.46c-2.1 3.179-5.666 5.097-9.476 5.097-6.23 0-11.357-5.127-11.357-11.358 0-6.231 5.127-11.358 11.357-11.358 2.226 0 4.404.655 6.262 1.882 5.192 3.439 6.642 10.537 3.214 15.737ZM576.8 276.901a9.6125 9.6125 0 0 0-1.592 5.298c0 5.272 4.338 9.61 9.61 9.61 5.272 0 9.611-4.338 9.611-9.61 0-3.224-1.623-6.241-4.313-8.018-4.4-2.9-10.406-1.674-13.316 2.72Z"/>
  <circle cx="607.901" cy="323.241" r="6.989" fill="#ccc"/>
  <circle cx="627.397" cy="359.051" r="3.671" fill="#ccc"/>
  <path fill="#ccc" fill-rule="nonzero" d="M312.277 97.706c-.78-1.57-1.187-3.3-1.187-5.054 0-6.231 5.128-11.358 11.358-11.358 6.231 0 11.358 5.127 11.358 11.358 0 4.305-2.448 8.255-6.303 10.171-5.581 2.766-12.448.458-15.226-5.117Zm18.777-9.331c-1.621-3.262-4.963-5.333-8.606-5.333-5.272 0-9.61 4.338-9.61 9.61 0 5.272 4.338 9.61 9.61 9.61 1.484 0 2.948-.343 4.277-1.004 4.717-2.35 6.669-8.161 4.329-12.883Z"/>
  <circle cx="275.365" cy="92.022" r="6.989" fill="#ccc"/>
  <circle cx="234.607" cy="90.915" r="3.671" fill="#ccc"/>
  <path fill="#2f2e41" fill-rule="nonzero" d="m181.074 369.285-1.024-2.61c-2.824-7.198-9.578-12.732-16.806-13.769-7.348-.961-14.624 2.412-18.638 8.642a42.077 42.077 0 0 0-3.932 9.202c-.322.957-.647 1.649-1.27 1.859-.703.252-1.401-.18-2.56-.898-.253-.157-.545-.24-.843-.24-.879 0-1.602.723-1.602 1.602 0 .072.005.144.015.216l1.215 8.67-1.017-.905c-6.612-5.885-7.971-16.961-3.194-23.988l-10.871 2.234.49-.935c4.513-8.711 12.3-15.288 21.644-18.28l-10.413-2.293 1.052-.648c9.325-5.745 21.628-5.583 31.34.402 9.894 6.339 16.027 17.189 16.356 28.936l.058 2.803Z"/>
</svg>
