<svg width="380" height="261" viewBox="0 0 380 261" fill="none" xmlns="http://www.w3.org/2000/svg">
<g clip-path="url(#clip0_234_1071)">
<path d="M52.1488 259.507C37.0377 255.578 23.6848 246.695 14.2303 234.282C4.77587 221.868 -0.232508 206.644 0.00803294 191.048C0.0679649 187.162 0.476955 183.195 2.11217 179.669C3.74738 176.142 6.78477 173.092 10.5842 172.257C14.7307 171.345 19.1062 173.209 22.1963 176.118C25.2864 179.026 27.3126 182.864 29.1767 186.674C40.4049 209.626 48.9359 234.254 52.1298 259.599L52.1488 259.507Z" fill="#F2F2F2"/>
<path d="M8.70308 173.023L16.5724 190.883L24.4418 208.744C26.934 214.4 29.4215 220.059 31.9975 225.678C34.5509 231.248 37.1917 236.779 40.009 242.221C42.8223 247.655 45.8123 253 49.0578 258.19C49.462 258.836 49.8701 259.48 50.2823 260.121C50.5675 260.565 51.2804 260.153 50.9932 259.706C47.6854 254.555 44.6375 249.242 41.7789 243.831C38.9172 238.414 36.2425 232.9 33.6666 227.342C31.0769 221.754 28.5869 216.122 26.1034 210.486C23.4893 204.555 20.8757 198.623 18.2626 192.691L10.3932 174.83L9.41393 172.607C9.20097 172.124 8.49143 172.542 8.70308 173.023Z" fill="white"/>
<path d="M48.866 259.631C39.9588 261.666 30.6255 260.655 22.3622 256.76C14.0988 252.865 7.38399 246.311 3.29406 238.149C2.27503 236.115 1.41521 233.945 1.3112 231.674C1.20719 229.402 1.95991 226.999 3.70669 225.541C5.61306 223.949 8.38849 223.737 10.7789 224.414C13.1693 225.091 15.2583 226.537 17.2559 228.012C29.2883 236.901 40.3731 247.386 48.8812 259.684L48.866 259.631Z" fill="#F2F2F2"/>
<path d="M2.93716 226.446L11.8497 233.596L20.7622 240.747C23.5848 243.012 26.4056 245.279 29.2616 247.502C32.0925 249.705 34.9585 251.864 37.8919 253.93C40.8211 255.993 43.8181 257.962 46.9055 259.781C47.29 260.007 47.6758 260.231 48.0631 260.453C48.3312 260.607 48.59 260.2 48.32 260.046C45.2107 258.264 42.1924 256.327 39.2458 254.289C36.2961 252.248 33.4173 250.106 30.5779 247.915C27.7233 245.713 24.9082 243.46 22.0959 241.204C19.1356 238.829 16.1756 236.454 13.2157 234.079L4.30318 226.928L3.19406 226.039C2.95287 225.845 2.69745 226.253 2.93716 226.446Z" fill="white"/>
<path d="M376.558 0H137.125C136.213 0.00101133 135.338 0.363539 134.693 1.00804C134.048 1.65253 133.685 2.52637 133.684 3.43782V165.507C133.685 166.418 134.048 167.292 134.693 167.936C135.338 168.581 136.213 168.943 137.125 168.944H376.558C377.471 168.943 378.346 168.581 378.991 167.936C379.636 167.292 379.999 166.418 380 165.507V3.43782C379.999 2.52637 379.636 1.65253 378.991 1.00804C378.346 0.363539 377.471 0.00101133 376.558 0ZM379.017 165.507C379.016 166.158 378.757 166.782 378.296 167.243C377.835 167.703 377.21 167.962 376.558 167.962H137.125C136.473 167.962 135.848 167.703 135.387 167.243C134.926 166.782 134.667 166.158 134.667 165.507V3.43782C134.667 2.78664 134.926 2.16221 135.387 1.70175C135.848 1.24129 136.473 0.982495 137.125 0.982235H376.558C377.21 0.982495 377.835 1.24129 378.296 1.70175C378.757 2.16221 379.016 2.78664 379.017 3.43782V165.507Z" fill="#3F3D56"/>
<path d="M379.508 13.771H134.176V14.7532H379.508V13.771Z" fill="#3F3D56"/>
<path d="M142.534 10.3136C144.163 10.3136 145.484 8.99429 145.484 7.36687C145.484 5.73945 144.163 4.42017 142.534 4.42017C140.904 4.42017 139.584 5.73945 139.584 7.36687C139.584 8.99429 140.904 10.3136 142.534 10.3136Z" fill="#3F3D56"/>
<path d="M151.015 10.3136C152.644 10.3136 153.964 8.99429 153.964 7.36687C153.964 5.73945 152.644 4.42017 151.015 4.42017C149.385 4.42017 148.065 5.73945 148.065 7.36687C148.065 8.99429 149.385 10.3136 151.015 10.3136Z" fill="#3F3D56"/>
<path d="M159.496 10.3136C161.125 10.3136 162.445 8.99429 162.445 7.36687C162.445 5.73945 161.125 4.42017 159.496 4.42017C157.866 4.42017 156.546 5.73945 156.546 7.36687C156.546 8.99429 157.866 10.3136 159.496 10.3136Z" fill="#3F3D56"/>
<path d="M194.092 36.5883H152.793C151.881 36.5883 151.005 36.2261 150.36 35.5814C149.714 34.9367 149.352 34.0622 149.352 33.1505C149.352 32.2387 149.714 31.3643 150.36 30.7196C151.005 30.0748 151.881 29.7126 152.793 29.7126H194.092C195.005 29.7126 195.88 30.0748 196.525 30.7196C197.171 31.3643 197.533 32.2387 197.533 33.1505C197.533 34.0622 197.171 34.9367 196.525 35.5814C195.88 36.2261 195.005 36.5883 194.092 36.5883Z" fill="#CCCCCC"/>
<path d="M250.631 53.2863H152.793C151.881 53.2863 151.005 52.9241 150.36 52.2794C149.714 51.6347 149.352 50.7602 149.352 49.8485C149.352 48.9367 149.714 48.0623 150.36 47.4175C151.005 46.7728 151.881 46.4106 152.793 46.4106H250.631C251.544 46.4106 252.42 46.7728 253.065 47.4175C253.71 48.0623 254.073 48.9367 254.073 49.8485C254.073 50.7602 253.71 51.6347 253.065 52.2794C252.42 52.9241 251.544 53.2863 250.631 53.2863Z" fill="#CCCCCC"/>
<path d="M282.205 59.9277C277.596 66.64 274.91 74.482 274.436 82.6076C273.962 90.7331 275.719 98.8338 279.516 106.035C283.313 113.237 289.007 119.266 295.983 123.472C302.959 127.677 310.952 129.9 319.1 129.901V90.8863L282.205 59.9277Z" fill="#0E7B54"/>
<path d="M319.1 40.5171C311.834 40.5125 304.676 42.2778 298.247 45.6601C291.818 49.0424 286.312 53.9397 282.205 59.9275L319.1 90.8861V40.5171Z" fill="#D9BA83"/>
<path d="M319.1 130.392H318.609V40.0261H319.1C331.096 40.0261 342.601 44.7864 351.084 53.2599C359.567 61.7333 364.332 73.2257 364.332 85.2089C364.332 97.1922 359.567 108.685 351.084 117.158C342.601 125.631 331.096 130.392 319.1 130.392ZM319.592 41.011V129.407C331.241 129.278 342.37 124.564 350.562 116.289C358.754 108.015 363.349 96.8466 363.349 85.2089C363.349 73.5713 358.754 62.4032 350.562 54.1285C342.37 45.8539 331.241 41.1404 319.592 41.011Z" fill="#3F3D56"/>
<path d="M181.309 148.809H172.951C172.364 148.808 171.802 148.575 171.387 148.161C170.972 147.746 170.739 147.184 170.739 146.599V122.534C170.739 121.948 170.972 121.386 171.387 120.972C171.802 120.557 172.364 120.324 172.951 120.324H181.309C181.896 120.324 182.458 120.557 182.873 120.972C183.287 121.386 183.521 121.948 183.521 122.534V146.599C183.521 147.184 183.287 147.746 182.873 148.161C182.458 148.575 181.896 148.808 181.309 148.809Z" fill="#D9BA83"/>
<path d="M205.891 148.809H197.533C196.947 148.808 196.385 148.575 195.97 148.161C195.555 147.746 195.322 147.185 195.321 146.599V111.238C195.322 110.652 195.555 110.09 195.97 109.676C196.385 109.262 196.947 109.029 197.533 109.028H205.891C206.478 109.029 207.04 109.262 207.455 109.676C207.87 110.09 208.103 110.652 208.104 111.238V146.599C208.103 147.185 207.87 147.746 207.455 148.161C207.04 148.575 206.478 148.808 205.891 148.809Z" fill="#F46363"/>
<path d="M230.474 148.809H222.116C221.529 148.808 220.967 148.575 220.552 148.161C220.138 147.746 219.904 147.185 219.904 146.599V101.416C219.904 100.83 220.138 100.268 220.552 99.8538C220.967 99.4395 221.529 99.2065 222.116 99.2058H230.474C231.061 99.2065 231.623 99.4395 232.038 99.8538C232.452 100.268 232.686 100.83 232.686 101.416V146.599C232.686 147.185 232.452 147.746 232.038 148.161C231.623 148.575 231.061 148.808 230.474 148.809Z" fill="#0E7B54"/>
<path d="M181.309 149.054H172.951C172.299 149.053 171.674 148.795 171.214 148.334C170.753 147.874 170.493 147.25 170.493 146.599V92.5757C170.493 91.9247 170.753 91.3005 171.214 90.8402C171.674 90.3798 172.299 90.1209 172.951 90.1201H181.309C181.961 90.1209 182.586 90.3798 183.046 90.8402C183.507 91.3005 183.766 91.9247 183.767 92.5757V146.599C183.766 147.25 183.507 147.874 183.046 148.334C182.586 148.795 181.961 149.053 181.309 149.054ZM172.951 91.1024C172.56 91.1028 172.185 91.2581 171.908 91.5344C171.632 91.8106 171.476 92.1851 171.476 92.5757V146.599C171.476 146.989 171.632 147.364 171.908 147.64C172.185 147.916 172.56 148.072 172.951 148.072H181.309C181.7 148.072 182.075 147.916 182.351 147.64C182.628 147.364 182.783 146.989 182.784 146.599V92.5757C182.783 92.1851 182.628 91.8106 182.351 91.5344C182.075 91.2581 181.7 91.1028 181.309 91.1024H172.951Z" fill="#3F3D56"/>
<path d="M205.891 149.054H197.533C196.882 149.053 196.257 148.795 195.796 148.334C195.335 147.874 195.076 147.25 195.075 146.599V92.5757C195.076 91.9247 195.335 91.3005 195.796 90.8402C196.257 90.3798 196.882 90.1209 197.533 90.1201H205.891C206.543 90.1209 207.168 90.3798 207.629 90.8402C208.09 91.3005 208.349 91.9247 208.35 92.5757V146.599C208.349 147.25 208.09 147.874 207.629 148.334C207.168 148.795 206.543 149.053 205.891 149.054ZM197.533 91.1024C197.142 91.1028 196.767 91.2581 196.491 91.5344C196.214 91.8106 196.059 92.1851 196.058 92.5757V146.599C196.059 146.989 196.214 147.364 196.491 147.64C196.767 147.916 197.142 148.072 197.533 148.072H205.891C206.283 148.072 206.657 147.916 206.934 147.64C207.21 147.364 207.366 146.989 207.366 146.599V92.5757C207.366 92.1851 207.21 91.8106 206.934 91.5344C206.657 91.2581 206.283 91.1028 205.891 91.1024H197.533Z" fill="#3F3D56"/>
<path d="M230.474 149.054H222.116C221.464 149.053 220.839 148.795 220.379 148.334C219.918 147.874 219.658 147.25 219.658 146.599V92.5757C219.658 91.9247 219.918 91.3005 220.379 90.8402C220.839 90.3798 221.464 90.1209 222.116 90.1201H230.474C231.126 90.1209 231.751 90.3798 232.211 90.8402C232.672 91.3005 232.931 91.9247 232.932 92.5757V146.599C232.931 147.25 232.672 147.874 232.211 148.334C231.751 148.795 231.126 149.053 230.474 149.054ZM222.116 91.1024C221.725 91.1028 221.35 91.2581 221.073 91.5344C220.797 91.8106 220.641 92.1851 220.641 92.5757V146.599C220.641 146.989 220.797 147.364 221.073 147.64C221.35 147.916 221.725 148.072 222.116 148.072H230.474C230.865 148.072 231.24 147.916 231.516 147.64C231.793 147.364 231.949 146.989 231.949 146.599V92.5757C231.949 92.1851 231.793 91.8106 231.516 91.5344C231.24 91.2581 230.865 91.1028 230.474 91.1024H222.116Z" fill="#3F3D56"/>
<path d="M55.2768 176.312C55.4678 175.616 55.5037 174.886 55.3819 174.175C55.2601 173.463 54.9836 172.787 54.5718 172.193C54.16 171.6 53.623 171.104 52.9986 170.741C52.3742 170.377 51.6775 170.154 50.9578 170.089L46.7297 153.055L40.5415 159.76L45.5053 174.908C45.4751 176.123 45.8923 177.307 46.6777 178.236C47.463 179.164 48.5621 179.773 49.7666 179.946C50.9711 180.119 52.1973 179.845 53.2128 179.175C54.2284 178.505 54.9628 177.487 55.2768 176.312Z" fill="#FFB8B8"/>
<path d="M43.9411 171.073C43.6542 170.954 43.3958 170.775 43.1826 170.55C42.9693 170.324 42.806 170.055 42.7034 169.762L35.6452 148.066C33.8215 142.854 33.9549 137.159 36.0206 132.038L42.8243 115.166C42.9773 114.243 43.3109 113.359 43.806 112.565C44.3012 111.77 44.9482 111.082 45.7101 110.537C46.4719 109.993 47.3337 109.604 48.2461 109.393C49.1585 109.182 50.1037 109.152 51.0276 109.306C51.9514 109.46 52.8359 109.794 53.6304 110.289C54.4249 110.785 55.1138 111.432 55.6578 112.194C56.2017 112.955 56.5901 113.817 56.8006 114.728C57.0112 115.64 57.0397 116.584 56.8847 117.507L47.4979 144.792L50.7836 167.01C50.8273 167.462 50.731 167.916 50.5076 168.312C50.2843 168.707 49.9447 169.025 49.5349 169.222L45.7449 171.028C45.3383 171.222 44.8824 171.287 44.4378 171.215C44.2672 171.187 44.1005 171.14 43.9411 171.073Z" fill="#2F2E41"/>
<path d="M78.8325 254.617L84.8601 254.616L87.7274 231.392L78.8315 231.393L78.8325 254.617Z" fill="#FFB8B8"/>
<path d="M96.4846 260.207L77.541 260.207L77.5407 252.896L89.1652 252.896C91.1063 252.896 92.968 253.666 94.3407 255.037C95.7133 256.408 96.4845 258.267 96.4846 260.207Z" fill="#2F2E41"/>
<path d="M48.8418 254.617L54.8694 254.616L57.7367 231.392L48.8408 231.393L48.8418 254.617Z" fill="#FFB8B8"/>
<path d="M66.4941 260.207L47.5506 260.207L47.5502 252.896L59.1747 252.896C61.1159 252.896 62.9775 253.666 64.3502 255.037C65.7228 256.408 66.4941 258.267 66.4941 260.207Z" fill="#2F2E41"/>
<path d="M80.4802 159.962L85.7786 201.897C86.507 207.662 87.0166 213.448 87.3075 219.256L88.735 247.774C88.7483 248.04 88.7073 248.306 88.6146 248.556C88.5219 248.805 88.3794 249.034 88.1957 249.226C88.012 249.419 87.791 249.573 87.546 249.678C87.3011 249.783 87.0373 249.837 86.7708 249.837H78.7292C78.2588 249.837 77.804 249.668 77.4472 249.362C77.0905 249.056 76.8555 248.632 76.7849 248.167L69.5527 200.571C69.5179 200.342 69.4028 200.132 69.2279 199.979C69.053 199.827 68.8296 199.741 68.5973 199.737C68.3649 199.733 68.1387 199.811 67.9587 199.958C67.7788 200.105 67.6566 200.31 67.614 200.538L58.9012 247.154C58.815 247.573 58.5942 247.952 58.2724 248.234C57.9506 248.517 57.5454 248.686 57.1183 248.718L49.717 249.187C49.4423 249.207 49.1663 249.169 48.9071 249.076C48.6479 248.982 48.4112 248.836 48.2123 248.645C48.0134 248.455 47.8569 248.225 47.7528 247.97C47.6486 247.715 47.5993 247.441 47.6079 247.166L49.9979 170.767L80.4802 159.962Z" fill="#2F2E41"/>
<path d="M57.0048 100.233C63.6739 100.233 69.0802 94.8324 69.0802 88.1705C69.0802 81.5087 63.6739 76.1082 57.0048 76.1082C50.3358 76.1082 44.9294 81.5087 44.9294 88.1705C44.9294 94.8324 50.3358 100.233 57.0048 100.233Z" fill="#FFB8B8"/>
<path d="M47.5396 171.749C50.4895 178.625 63.2724 183.536 66.2223 173.714C68.5036 166.121 77.54 162.929 81.5272 161.873C82.0286 161.74 82.4571 161.414 82.7203 160.968C82.9835 160.521 83.0601 159.989 82.9335 159.486L71.7876 115.752C71.1385 113.205 69.8456 110.866 68.0326 108.961C66.2197 107.055 63.9475 105.646 61.4335 104.869C52.5742 102.129 43.2329 107.771 41.7332 116.911C41.3236 119.474 41.0626 122.058 40.9516 124.651C40.0271 143.947 45.5975 167.221 47.5396 171.749Z" fill="#0E7B54"/>
<path d="M87.5549 171.737C87.4826 171.018 87.2535 170.325 86.8837 169.704C86.514 169.084 86.0125 168.552 85.4148 168.146C84.817 167.74 84.1374 167.47 83.4239 167.355C82.7104 167.24 81.9803 167.283 81.285 167.48L71.2097 153.103L67.8481 161.582L77.9311 173.935C78.3403 175.08 79.1556 176.035 80.2226 176.619C81.2896 177.204 82.5342 177.377 83.7204 177.106C84.9067 176.835 85.9522 176.139 86.6589 175.149C87.3657 174.159 87.6844 172.945 87.5549 171.737Z" fill="#FFB8B8"/>
<path d="M75.0914 170.918C74.7808 170.91 74.4754 170.836 74.1951 170.702C73.9148 170.568 73.666 170.376 73.4647 170.139L59.0708 152.427C55.4937 148.219 53.5686 142.856 53.6536 137.336L53.931 119.148C53.7421 118.232 53.7358 117.288 53.9124 116.37C54.089 115.451 54.445 114.576 54.9601 113.795C55.4753 113.014 56.1394 112.342 56.9146 111.818C57.6898 111.293 58.5609 110.926 59.478 110.738C60.3952 110.55 61.3405 110.544 62.2599 110.721C63.1793 110.898 64.0548 111.254 64.8364 111.769C65.6179 112.284 66.2902 112.948 66.8149 113.723C67.3395 114.498 67.7062 115.368 67.894 116.284L68.9533 145.116L80.0143 164.669C80.2178 165.075 80.2915 165.534 80.2254 165.983C80.1594 166.433 79.9567 166.851 79.645 167.182L76.7584 170.228C76.4487 170.555 76.0466 170.779 75.6059 170.872C75.4369 170.908 75.2642 170.923 75.0914 170.918Z" fill="#2F2E41"/>
<path d="M47.8394 98.0366C48.0994 98.1906 48.3915 98.2827 48.6929 98.3059C48.9943 98.3291 49.2971 98.2826 49.5777 98.1702C49.8582 98.0577 50.1092 97.8823 50.311 97.6574C50.5128 97.4326 50.6601 97.1643 50.7415 96.8735L50.7482 96.846C50.9674 95.9305 50.7854 94.9745 50.7225 94.0353C50.6596 93.0961 50.7516 92.0643 51.392 91.3738C52.5857 90.0865 54.7094 90.7689 56.4355 90.4434C57.4466 90.2179 58.3407 89.6322 58.9507 88.7958C59.5606 87.9593 59.8445 86.9295 59.7493 85.8991C59.7247 85.7039 59.6861 85.5085 59.6429 85.3131C59.5349 84.8183 59.5433 84.3051 59.6673 83.814C59.7912 83.3229 60.0275 82.8672 60.3575 82.4826C60.6874 82.098 61.1022 81.7951 61.5691 81.5976C62.036 81.4001 62.5423 81.3134 63.0484 81.3443C64.7929 81.4439 66.6758 81.9719 68.1191 80.6812C68.6482 80.1721 69.0156 79.5187 69.1753 78.8024C69.335 78.0861 69.2799 77.3387 69.0171 76.6534C68.193 74.2772 65.8638 73.0332 63.5589 72.3494C60.7082 71.5266 57.7098 71.3487 54.7817 71.8287C51.8535 72.3086 49.0692 73.4344 46.6312 75.124C45.1754 76.1491 43.8158 77.4371 43.1953 79.1049C42.5747 80.7727 42.8741 82.8768 44.2733 83.9778C43.1887 85.1249 42.425 86.5365 42.0586 88.0714C41.6922 89.6062 41.736 91.2102 42.1857 92.7228C42.8768 94.9473 46.1752 97.08 47.8394 98.0366Z" fill="#2F2E41"/>
<path d="M135.747 261H5.4604C5.33001 261 5.20495 260.948 5.11275 260.856C5.02055 260.764 4.96875 260.639 4.96875 260.509C4.96875 260.379 5.02055 260.254 5.11275 260.162C5.20495 260.07 5.33001 260.018 5.4604 260.018H135.747C135.878 260.018 136.003 260.07 136.095 260.162C136.187 260.254 136.239 260.379 136.239 260.509C136.239 260.639 136.187 260.764 136.095 260.856C136.003 260.948 135.878 261 135.747 261Z" fill="#3F3D56"/>
</g>
<defs>
<clipPath id="clip0_234_1071">
<rect width="380" height="261" fill="white"/>
</clipPath>
</defs>
</svg>
